<svg width="841" height="761" viewBox="0 0 841 761" fill="none" xmlns="http://www.w3.org/2000/svg">
<path d="M464.163 426.603C464.163 544.577 382.292 621.574 281.428 598.751C180.564 575.927 98.6929 461.879 98.6929 343.905C98.6929 225.931 180.564 148.934 281.428 171.758C382.292 194.581 464.163 308.629 464.163 426.603Z" stroke="#B5B5B5"/>
<path d="M476.084 421.53C476.084 539.504 394.213 616.501 293.349 593.678C192.485 570.855 110.614 456.807 110.614 338.833C110.614 220.859 192.485 143.862 293.349 166.685C394.213 189.508 476.084 303.556 476.084 421.53Z" stroke="#B5B5B5"/>
<path d="M667.744 472.668C667.744 590.642 585.873 667.639 485.009 644.816C384.145 621.993 302.274 507.945 302.274 389.971C302.274 271.997 384.145 195 485.009 217.823C585.873 240.646 667.744 354.694 667.744 472.668Z" stroke="#B5B5B5"/>
<path d="M679.665 467.596C679.665 585.57 597.794 662.567 496.93 639.744C396.066 616.92 314.195 502.872 314.195 384.898C314.195 266.924 396.066 189.927 496.93 212.751C597.794 235.574 679.665 349.622 679.665 467.596Z" stroke="#B5B5B5"/>
<path d="M491.307 413.496C491.307 531.471 409.436 608.467 308.572 585.644C207.708 562.821 125.837 448.773 125.837 330.799C125.837 212.825 207.708 135.828 308.572 158.651C409.436 181.474 491.307 295.522 491.307 413.496Z" stroke="#B5B5B5" stroke-opacity="0.51"/>
<path d="M694.888 459.562C694.888 577.536 613.017 654.533 512.153 631.71C411.289 608.887 329.418 494.839 329.418 376.865C329.418 258.891 411.289 181.894 512.153 204.717C613.017 227.54 694.888 341.588 694.888 459.562Z" stroke="#B5B5B5" stroke-opacity="0.51"/>
<path d="M518.451 400.39C518.451 518.364 436.58 595.361 335.716 572.538C234.852 549.715 152.981 435.667 152.981 317.693C152.981 199.719 234.852 122.722 335.716 145.545C436.58 168.368 518.451 282.416 518.451 400.39Z" stroke="#B5B5B5" stroke-opacity="0.25"/>
<path d="M722.032 446.456C722.032 564.43 640.161 641.427 539.297 618.604C438.433 595.78 356.562 481.732 356.562 363.758C356.562 245.784 438.433 168.787 539.297 191.611C640.161 214.434 722.032 328.482 722.032 446.456Z" stroke="#B5B5B5" stroke-opacity="0.25"/>
<path d="M545.595 387.284C545.595 505.258 463.724 582.255 362.86 559.432C261.996 536.608 180.125 422.561 180.125 304.586C180.125 186.612 261.996 109.616 362.86 132.439C463.724 155.262 545.595 269.31 545.595 387.284Z" stroke="#B5B5B5" stroke-opacity="0.14"/>
<path d="M749.176 433.35C749.176 551.324 667.305 628.321 566.441 605.497C465.577 582.674 383.706 468.626 383.706 350.652C383.706 232.678 465.577 155.681 566.441 178.504C667.305 201.328 749.176 315.375 749.176 433.35Z" stroke="#B5B5B5" stroke-opacity="0.14"/>
<path d="M572.739 374.178C572.739 492.152 490.868 569.149 390.004 546.325C289.14 523.502 207.269 409.454 207.269 291.48C207.269 173.506 289.14 96.5092 390.004 119.332C490.868 142.156 572.739 256.204 572.739 374.178Z" stroke="#B5B5B5" stroke-opacity="0.14"/>
<path d="M776.32 420.243C776.32 538.217 694.449 615.214 593.585 592.391C492.721 569.568 410.85 455.52 410.85 337.546C410.85 219.572 492.721 142.575 593.585 165.398C694.449 188.221 776.32 302.269 776.32 420.243Z" stroke="#B5B5B5" stroke-opacity="0.14"/>
<line y1="-0.5" x2="469.868" y2="-0.5" transform="matrix(0.899722 -0.447479 0.558247 0.833405 1 272.915)" stroke="#CACACA" stroke-opacity="0.62"/>
<line y1="-0.5" x2="469.868" y2="-0.5" transform="matrix(0.899722 -0.447479 0.558247 0.833405 206.415 322.061)" stroke="#CACACA" stroke-opacity="0.62"/>
<line y1="-0.5" x2="469.868" y2="-0.5" transform="matrix(0.899722 -0.447479 0.558247 0.833405 237.594 660.766)" stroke="#CACACA" stroke-opacity="0.62"/>
<line y1="-0.5" x2="469.868" y2="-0.5" transform="matrix(0.899722 -0.447479 0.558247 0.833405 418.249 717.268)" stroke="#CACACA" stroke-opacity="0.62"/>
</svg>
