<svg width="2373" height="1253" viewBox="0 0 2373 1253" fill="none" xmlns="http://www.w3.org/2000/svg">
<path d="M0 1028V493H173V1028H0Z" fill="#E94B27"/>
<path d="M715 229H542V1028H715V229Z" fill="#E94B27"/>
<path d="M0 1077H1017L1594.18 112.176C1612.06 82.2935 1644.21 63.9999 1679.04 63.9999H2041C2208 63.9999 2373 184 2373 386C2373 588 2202 700 2041 700H1873L2160.34 1119.06C2198.98 1175.41 2158.64 1252 2090.31 1252C2057.59 1252 2027.01 1235.78 2008.66 1208.69L1648.05 676.355C1608.46 617.919 1650.32 539 1720.9 539H2041C2041 539 2208 538 2208 381C2208 224 2041 241 2041 241H1719L1140.32 1209.62C1124.62 1235.9 1096.25 1252 1065.63 1252H0V1077Z" fill="#E94B27"/>
<path d="M443 63.9999H270V1028H443V63.9999Z" fill="#11284B"/>
<path d="M985 719H811V1028H985V719Z" fill="#11284B"/>
<path d="M1089.5 0.5H888.5L1696 1253H1900L1089.5 0.5Z" fill="#11284B"/>
<circle cx="87" cy="333" r="87" fill="#11284B"/>
<circle cx="898" cy="583" r="87" fill="#E94B27"/>
</svg>
