<svg width="2385" height="1695" viewBox="0 0 2385 1695" fill="none" xmlns="http://www.w3.org/2000/svg">
<path d="M12 1028V493H185V1028H12Z" fill="#E94B27"/>
<path d="M727 229H554V1028H727V229Z" fill="#E94B27"/>
<path d="M12 1077H1029L1606.18 112.176C1624.06 82.2935 1656.21 63.9999 1691.04 63.9999H2053C2220 63.9999 2385 184 2385 386C2385 588 2214 700 2053 700H1885L2172.34 1119.06C2210.98 1175.41 2170.64 1252 2102.31 1252C2069.59 1252 2039.01 1235.78 2020.66 1208.69L1660.05 676.355C1620.46 617.919 1662.32 539 1732.9 539H2053C2053 539 2220 538 2220 381C2220 224 2053 241 2053 241H1731L1152.32 1209.62C1136.62 1235.9 1108.25 1252 1077.63 1252H12V1077Z" fill="#E94B27"/>
<path d="M455 63.9999H282V1028H455V63.9999Z" fill="#11284B"/>
<path d="M997 719H823V1028H997V719Z" fill="#11284B"/>
<path d="M1101.5 0.5H900.5L1708 1253H1912L1101.5 0.5Z" fill="#11284B"/>
<circle cx="99" cy="333" r="87" fill="#11284B"/>
<circle cx="910" cy="583" r="87" fill="#E94B27"/>
<path d="M33.1854 1380.73H13.9826V1508H33.1854V1380.73ZM69.4904 1380.73H50.9091V1508H69.4904V1380.73ZM104.32 1380.73H85.7382V1508H104.32V1380.73ZM120.567 1508H139.149V1412.55H120.567V1508ZM129.951 1397.82C136.352 1397.82 141.697 1392.85 141.697 1386.76C141.697 1380.67 136.352 1375.63 129.951 1375.63C123.488 1375.63 118.206 1380.67 118.206 1386.76C118.206 1392.85 123.488 1397.82 129.951 1397.82ZM173.978 1451.32C173.978 1436.1 183.299 1427.4 196.226 1427.4C208.841 1427.4 216.485 1435.66 216.485 1449.52V1508H235.066V1447.28C235.066 1423.67 222.078 1411.3 202.564 1411.3C188.209 1411.3 178.825 1417.95 174.413 1428.08H173.232V1412.55H155.396V1508H173.978V1451.32ZM291.444 1509.93C318.353 1509.93 335.94 1490.23 335.94 1460.71C335.94 1431 318.353 1411.3 291.444 1411.3C264.535 1411.3 246.948 1431 246.948 1460.71C246.948 1490.23 264.535 1509.93 291.444 1509.93ZM291.506 1494.33C273.919 1494.33 265.716 1478.98 265.716 1460.65C265.716 1442.38 273.919 1426.84 291.506 1426.84C308.969 1426.84 317.172 1442.38 317.172 1460.65C317.172 1478.98 308.969 1494.33 291.506 1494.33ZM347.931 1508H366.512V1412.55H347.931V1508ZM357.314 1397.82C363.715 1397.82 369.06 1392.85 369.06 1386.76C369.06 1380.67 363.715 1375.63 357.314 1375.63C350.851 1375.63 345.569 1380.67 345.569 1386.76C345.569 1392.85 350.851 1397.82 357.314 1397.82ZM454.288 1435.85C450.435 1421 438.814 1411.3 418.182 1411.3C396.618 1411.3 381.33 1422.68 381.33 1439.58C381.33 1453.13 389.533 1462.14 407.431 1466.11L423.589 1469.66C432.786 1471.71 437.074 1475.81 437.074 1481.77C437.074 1489.17 429.182 1494.95 417.002 1494.95C405.878 1494.95 398.731 1490.16 396.494 1480.78L378.534 1483.51C381.641 1500.42 395.686 1509.93 417.126 1509.93C440.182 1509.93 456.153 1497.68 456.153 1480.41C456.153 1466.92 447.577 1458.59 430.052 1454.56L414.889 1451.08C404.386 1448.59 399.85 1445.05 399.912 1438.58C399.85 1431.25 407.804 1426.03 418.369 1426.03C429.928 1426.03 435.272 1432.43 437.447 1438.83L454.288 1435.85ZM506.888 1508H587.428V1491.47H526.091V1452.5H582.518V1436.04H526.091V1397.26H586.682V1380.73H506.888V1508ZM616.757 1412.55H596.373L625.706 1460.27L596.001 1508H616.384L637.824 1472.33L659.326 1508H679.648L649.632 1460.27L679.399 1412.55H659.078L637.824 1449.71L616.757 1412.55ZM734.285 1412.55H714.71V1389.68H696.128V1412.55H682.146V1427.46H696.128V1483.83C696.066 1501.16 709.303 1509.55 723.969 1509.24C729.873 1509.18 733.85 1508.06 736.025 1507.25L732.67 1491.9C731.427 1492.15 729.127 1492.71 726.144 1492.71C720.116 1492.71 714.71 1490.72 714.71 1479.97V1427.46H734.285V1412.55ZM786.204 1509.93C807.023 1509.93 821.751 1499.67 825.977 1484.14L808.39 1480.97C805.034 1489.98 796.955 1494.58 786.391 1494.58C770.482 1494.58 759.793 1484.26 759.296 1465.87H827.158V1459.28C827.158 1424.79 806.526 1411.3 784.899 1411.3C758.301 1411.3 740.776 1431.56 740.776 1460.89C740.776 1490.54 758.053 1509.93 786.204 1509.93ZM759.358 1451.95C760.103 1438.4 769.922 1426.65 785.024 1426.65C799.441 1426.65 808.887 1437.34 808.949 1451.95H759.358ZM857.606 1451.32C857.606 1436.1 866.927 1427.4 879.854 1427.4C892.469 1427.4 900.113 1435.66 900.113 1449.52V1508H918.694V1447.28C918.694 1423.67 905.706 1411.3 886.192 1411.3C871.837 1411.3 862.453 1417.95 858.041 1428.08H856.86V1412.55H839.024V1508H857.606V1451.32ZM970.597 1509.86C987.998 1509.86 994.834 1499.24 998.19 1493.15H999.743V1508H1017.89V1380.73H999.308V1428.02H998.19C994.834 1422.12 988.495 1411.3 970.722 1411.3C947.666 1411.3 930.7 1429.51 930.7 1460.46C930.7 1491.35 947.417 1509.86 970.597 1509.86ZM974.699 1494.02C958.106 1494.02 949.468 1479.41 949.468 1460.27C949.468 1441.32 957.92 1427.09 974.699 1427.09C990.919 1427.09 999.619 1440.32 999.619 1460.27C999.619 1480.35 990.732 1494.02 974.699 1494.02ZM1076.8 1509.93C1097.62 1509.93 1112.35 1499.67 1116.57 1484.14L1098.99 1480.97C1095.63 1489.98 1087.55 1494.58 1076.99 1494.58C1061.08 1494.58 1050.39 1484.26 1049.89 1465.87H1117.75V1459.28C1117.75 1424.79 1097.12 1411.3 1075.49 1411.3C1048.9 1411.3 1031.37 1431.56 1031.37 1460.89C1031.37 1490.54 1048.65 1509.93 1076.8 1509.93ZM1049.95 1451.95C1050.7 1438.4 1060.52 1426.65 1075.62 1426.65C1090.04 1426.65 1099.48 1437.34 1099.55 1451.95H1049.95ZM1165.35 1509.86C1182.75 1509.86 1189.59 1499.24 1192.95 1493.15H1194.5V1508H1212.65V1380.73H1194.06V1428.02H1192.95C1189.59 1422.12 1183.25 1411.3 1165.48 1411.3C1142.42 1411.3 1125.46 1429.51 1125.46 1460.46C1125.46 1491.35 1142.17 1509.86 1165.35 1509.86ZM1169.45 1494.02C1152.86 1494.02 1144.22 1479.41 1144.22 1460.27C1144.22 1441.32 1152.68 1427.09 1169.45 1427.09C1185.67 1427.09 1194.38 1440.32 1194.38 1460.27C1194.38 1480.35 1185.49 1494.02 1169.45 1494.02ZM1269.47 1508H1288.67V1459.84H1314.77C1315.21 1459.84 1315.58 1459.84 1316.02 1459.84L1341.87 1508H1363.74L1335.53 1456.48C1351.13 1450.7 1358.9 1437.71 1358.9 1420.62C1358.9 1397.2 1344.36 1380.73 1314.84 1380.73H1269.47V1508ZM1288.67 1443.31V1397.2H1312.79C1331.74 1397.2 1339.57 1406.21 1339.57 1420.62C1339.57 1434.98 1331.74 1443.31 1313.03 1443.31H1288.67ZM1411.97 1509.93C1432.78 1509.93 1447.51 1499.67 1451.74 1484.14L1434.15 1480.97C1430.8 1489.98 1422.72 1494.58 1412.15 1494.58C1396.24 1494.58 1385.55 1484.26 1385.06 1465.87H1452.92V1459.28C1452.92 1424.79 1432.29 1411.3 1410.66 1411.3C1384.06 1411.3 1366.54 1431.56 1366.54 1460.89C1366.54 1490.54 1383.81 1509.93 1411.97 1509.93ZM1385.12 1451.95C1385.87 1438.4 1395.68 1426.65 1410.79 1426.65C1425.2 1426.65 1434.65 1437.34 1434.71 1451.95H1385.12ZM1492.56 1510.11C1508.35 1510.11 1517.24 1502.1 1520.78 1494.95H1521.52V1508H1539.67V1444.61C1539.67 1416.83 1517.8 1411.3 1502.63 1411.3C1485.36 1411.3 1469.45 1418.26 1463.23 1435.66L1480.7 1439.64C1483.43 1432.87 1490.39 1426.34 1502.88 1426.34C1514.87 1426.34 1521.03 1432.62 1521.03 1443.43V1443.87C1521.03 1450.64 1514.07 1450.52 1496.91 1452.5C1478.83 1454.62 1460.31 1459.34 1460.31 1481.03C1460.31 1499.8 1474.42 1510.11 1492.56 1510.11ZM1496.6 1495.2C1486.1 1495.2 1478.52 1490.48 1478.52 1481.28C1478.52 1471.33 1487.34 1467.79 1498.1 1466.36C1504.12 1465.56 1518.42 1463.94 1521.09 1461.27V1473.57C1521.09 1484.88 1512.08 1495.2 1496.6 1495.2ZM1574.25 1380.73H1555.67V1508H1574.25V1380.73ZM1590.5 1508H1609.08V1412.55H1590.5V1508ZM1599.88 1397.82C1606.28 1397.82 1611.63 1392.85 1611.63 1386.76C1611.63 1380.67 1606.28 1375.63 1599.88 1375.63C1593.42 1375.63 1588.14 1380.67 1588.14 1386.76C1588.14 1392.85 1593.42 1397.82 1599.88 1397.82ZM1669.89 1412.55H1650.31V1389.68H1631.73V1412.55H1617.75V1427.46H1631.73V1483.83C1631.67 1501.16 1644.9 1509.55 1659.57 1509.24C1665.47 1509.18 1669.45 1508.06 1671.63 1507.25L1668.27 1491.9C1667.03 1492.15 1664.73 1492.71 1661.74 1492.71C1655.72 1492.71 1650.31 1490.72 1650.31 1479.97V1427.46H1669.89V1412.55ZM1693.44 1543.55C1708.79 1543.55 1718.54 1535.53 1724.01 1520.74L1763.47 1412.73L1743.4 1412.55L1719.23 1486.62H1718.23L1694.06 1412.55H1674.17L1709.1 1509.24L1706.8 1515.58C1702.07 1527.95 1695.42 1529.07 1685.23 1526.27L1680.76 1541.5C1683 1542.55 1687.84 1543.55 1693.44 1543.55ZM13.9826 1675H62.7663C92.3473 1675 105.708 1660.27 105.708 1640.76C105.708 1621.06 91.9123 1609.93 79.2969 1609.25V1608.01C90.9801 1605.02 100.737 1597.07 100.737 1581.16C100.737 1562.33 87.6864 1547.73 60.5913 1547.73H13.9826V1675ZM33.1854 1658.53V1617.76H61.5856C76.9975 1617.76 86.63 1627.71 86.63 1639.83C86.63 1650.51 79.359 1658.53 60.902 1658.53H33.1854ZM33.1854 1602.79V1564.07H59.4105C74.636 1564.07 81.907 1572.09 81.907 1582.65C81.907 1594.96 71.8395 1602.79 58.9134 1602.79H33.1854ZM159.383 1676.93C180.202 1676.93 194.93 1666.67 199.156 1651.14L181.569 1647.97C178.213 1656.98 170.134 1661.58 159.569 1661.58C143.66 1661.58 132.971 1651.26 132.474 1632.87H200.336V1626.28C200.336 1591.79 179.704 1578.3 158.078 1578.3C131.48 1578.3 113.955 1598.56 113.955 1627.89C113.955 1657.54 131.231 1676.93 159.383 1676.93ZM132.536 1618.95C133.282 1605.4 143.101 1593.65 158.202 1593.65C172.62 1593.65 182.066 1604.34 182.128 1618.95H132.536ZM230.784 1618.32C230.784 1603.1 240.106 1594.4 253.032 1594.4C265.648 1594.4 273.291 1602.66 273.291 1616.52V1675H291.873V1614.28C291.873 1590.67 278.885 1578.3 259.371 1578.3C245.016 1578.3 235.632 1584.95 231.219 1595.08H230.039V1579.55H212.203V1675H230.784V1618.32ZM348.251 1676.93C370.809 1676.93 385.413 1663.38 387.464 1644.8H369.38C367.018 1655.11 359.002 1661.2 348.375 1661.2C332.652 1661.2 322.523 1648.09 322.523 1627.27C322.523 1606.83 332.839 1593.96 348.375 1593.96C360.182 1593.96 367.391 1601.42 369.38 1610.37H387.464C385.475 1591.1 369.753 1578.3 348.064 1578.3C321.155 1578.3 303.755 1598.56 303.755 1627.71C303.755 1656.48 320.534 1676.93 348.251 1676.93ZM417.166 1618.32C417.166 1603.1 426.799 1594.4 440.036 1594.4C452.837 1594.4 460.481 1602.54 460.481 1616.52V1675H479.062V1614.28C479.062 1590.48 466.012 1578.3 446.374 1578.3C431.522 1578.3 422.573 1584.77 418.098 1595.08H416.918V1547.73H398.585V1675H417.166V1618.32ZM495.108 1675H513.69V1616.15C513.69 1603.28 522.701 1594.34 533.265 1594.34C543.581 1594.34 550.728 1601.17 550.728 1611.55V1675H569.247V1614.16C569.247 1602.66 576.27 1594.34 588.388 1594.34C598.207 1594.34 606.286 1599.8 606.286 1612.73V1675H624.867V1610.99C624.867 1589.18 612.686 1578.3 595.41 1578.3C581.676 1578.3 571.36 1584.89 566.761 1595.08H565.767C561.603 1584.64 552.841 1578.3 540.101 1578.3C527.486 1578.3 518.102 1584.58 514.125 1595.08H512.944V1579.55H495.108V1675ZM668.8 1677.11C684.585 1677.11 693.472 1669.1 697.014 1661.95H697.76V1675H715.906V1611.61C715.906 1583.83 694.031 1578.3 678.868 1578.3C661.591 1578.3 645.682 1585.26 639.468 1602.66L656.93 1606.64C659.665 1599.87 666.625 1593.34 679.116 1593.34C691.11 1593.34 697.263 1599.62 697.263 1610.43V1610.87C697.263 1617.64 690.302 1617.52 673.15 1619.5C655.066 1621.62 636.547 1626.34 636.547 1648.03C636.547 1666.8 650.654 1677.11 668.8 1677.11ZM672.84 1662.2C662.337 1662.2 654.755 1657.48 654.755 1648.28C654.755 1638.33 663.58 1634.79 674.331 1633.36C680.359 1632.56 694.652 1630.94 697.325 1628.27V1640.57C697.325 1651.88 688.314 1662.2 672.84 1662.2ZM731.905 1675H750.487V1616.71C750.487 1604.22 760.119 1595.21 773.294 1595.21C777.147 1595.21 781.497 1595.89 782.988 1596.32V1578.55C781.124 1578.3 777.457 1578.12 775.096 1578.12C763.91 1578.12 754.339 1584.45 750.859 1594.71H749.865V1579.55H731.905V1675ZM790.318 1675H808.9V1641.13L818.159 1631.87L850.599 1675H873.406L832.142 1620.5L870.796 1579.55H848.548L810.515 1619.94H808.9V1547.73H790.318V1675ZM987.451 1581.16H1005.97C1005.41 1560.78 987.389 1545.99 961.537 1545.99C935.995 1545.99 916.42 1560.59 916.42 1582.53C916.42 1600.24 929.097 1610.62 949.543 1616.15L964.582 1620.25C978.192 1623.85 988.694 1628.33 988.694 1639.64C988.694 1652.07 976.824 1660.27 960.48 1660.27C945.69 1660.27 933.385 1653.68 932.267 1639.83H913.002C914.244 1662.88 932.08 1677.11 960.605 1677.11C990.496 1677.11 1007.71 1661.39 1007.71 1639.83C1007.71 1616.89 987.265 1608.01 971.107 1604.03L958.678 1600.8C948.735 1598.25 935.498 1593.59 935.56 1581.41C935.56 1570.6 945.441 1562.58 961.102 1562.58C975.706 1562.58 986.084 1569.42 987.451 1581.16ZM1080.88 1635.41C1080.95 1651.63 1068.89 1659.34 1058.45 1659.34C1046.95 1659.34 1039 1651.01 1039 1638.02V1579.55H1020.42V1640.26C1020.42 1663.94 1033.4 1676.24 1051.74 1676.24C1066.09 1676.24 1075.85 1668.66 1080.26 1658.47H1081.26V1675H1099.53V1579.55H1080.88V1635.41ZM1115.74 1675H1134.32V1579.55H1115.74V1675ZM1125.13 1564.82C1131.53 1564.82 1136.87 1559.85 1136.87 1553.76C1136.87 1547.67 1131.53 1542.63 1125.13 1542.63C1118.66 1542.63 1113.38 1547.67 1113.38 1553.76C1113.38 1559.85 1118.66 1564.82 1125.13 1564.82ZM1195.13 1579.55H1175.55V1556.68H1156.97V1579.55H1142.99V1594.46H1156.97V1650.83C1156.91 1668.16 1170.15 1676.55 1184.81 1676.24C1190.72 1676.18 1194.7 1675.06 1196.87 1674.25L1193.51 1658.9C1192.27 1659.15 1189.97 1659.71 1186.99 1659.71C1180.96 1659.71 1175.55 1657.72 1175.55 1646.97V1594.46H1195.13V1579.55ZM1247.05 1676.93C1267.87 1676.93 1282.6 1666.67 1286.82 1651.14L1269.23 1647.97C1265.88 1656.98 1257.8 1661.58 1247.24 1661.58C1231.33 1661.58 1220.64 1651.26 1220.14 1632.87H1288V1626.28C1288 1591.79 1267.37 1578.3 1245.74 1578.3C1219.15 1578.3 1201.62 1598.56 1201.62 1627.89C1201.62 1657.54 1218.9 1676.93 1247.05 1676.93ZM1220.2 1618.95C1220.95 1605.4 1230.77 1593.65 1245.87 1593.65C1260.29 1593.65 1269.73 1604.34 1269.79 1618.95H1220.2Z" fill="#11284B"/>
</svg>
